<?xml version="1.0" encoding="UTF-8"?>
<svg version="1.1" xmlns="http://www.w3.org/2000/svg" width="512" height="512">
<path d="M0 0 C1.33651572 -0.00302582 2.67302971 -0.00691745 4.00954068 -0.01159257 C7.65791997 -0.02182584 11.30620048 -0.01970275 14.9545877 -0.01541197 C18.89879257 -0.01293622 22.84297417 -0.0219694 26.78717041 -0.02944946 C34.50485046 -0.04217483 42.22249568 -0.04399287 49.94018446 -0.0416492 C56.21559082 -0.03986351 62.49098665 -0.04162107 68.76639175 -0.04587364 C69.66078922 -0.04646883 70.55518669 -0.04706402 71.47668711 -0.04767724 C73.293871 -0.04888904 75.11105488 -0.05010318 76.92823876 -0.05131962 C93.95564061 -0.06218677 110.98302263 -0.06003654 128.01042558 -0.05393478 C143.57310375 -0.04876602 159.13571932 -0.06002144 174.6983851 -0.07903299 C190.6952211 -0.09842447 206.6920275 -0.10666512 222.68887532 -0.10290974 C231.66304595 -0.10099973 240.63716329 -0.10346579 249.61132431 -0.11762428 C257.25092422 -0.12955572 264.89043805 -0.1309232 272.53003918 -0.11883412 C276.42421366 -0.11295788 280.31823084 -0.11181108 284.21239471 -0.12383652 C287.78404025 -0.13473741 291.35539791 -0.13154255 294.92703022 -0.11757483 C296.81651517 -0.11370038 298.70601311 -0.12444053 300.59546745 -0.13587171 C316.11883158 -0.03828353 328.94005043 4.10032109 340.25759888 14.88569641 C349.95565598 24.81232725 355.66975701 36.41376808 355.7250824 50.47821045 C355.73581535 52.35607742 355.73581535 52.35607742 355.74676514 54.2718811 C355.74960497 55.65153478 355.75231675 57.03118873 355.75491333 58.4108429 C355.76118258 59.86980855 355.76782979 61.32877263 355.77482605 62.78773499 C355.79580523 67.56907553 355.80621926 72.35041618 355.81619263 77.13179016 C355.82024178 78.78005045 355.82435875 80.42831056 355.82854271 82.07657051 C355.84757694 89.81756641 355.86181448 97.55855285 355.87015468 105.29956764 C355.87993589 114.22969913 355.90628571 123.15958335 355.94665557 132.08962768 C355.9768117 138.99762286 355.99162287 145.90554708 355.99493569 152.8136068 C355.99728575 156.93749964 356.0062411 161.06112774 356.03139687 165.18494987 C356.05467554 169.06332976 356.0589119 172.9412705 356.04863548 176.81970215 C356.04814004 178.24108911 356.05446311 179.66249769 356.06819153 181.08381844 C356.18947722 194.38713638 356.18947722 194.38713638 351.57791138 199.26069641 C347.22634274 203.19782994 343.6632686 203.89060619 337.98025513 203.65132141 C333.46418895 202.91700171 330.75505386 200.55961226 327.76541138 197.26069641 C325.47524977 193.40358212 325.45187772 189.7502415 325.4466095 185.32875061 C325.44059723 183.50776604 325.44059723 183.50776604 325.4344635 181.6499939 C325.43493857 180.30766294 325.43547467 178.96533201 325.43606567 177.6230011 C325.43303293 176.20683687 325.42951116 174.79067362 325.42553711 173.37451172 C325.41765582 170.32596987 325.41250606 167.27743968 325.40924644 164.22888947 C325.40332783 159.40402664 325.38677888 154.57923725 325.36790466 149.75440979 C325.36156743 148.10128407 325.35524181 146.44815831 325.3489275 144.7950325 C325.34576169 143.96718136 325.34259588 143.13933022 325.33933413 142.28639269 C325.29729288 131.05599784 325.26428976 119.82563738 325.25198364 108.59516907 C325.24359424 101.01685546 325.22107132 93.43872401 325.18262798 85.86050153 C325.16289733 81.85282242 325.15045274 77.8454154 325.15546227 73.83768463 C325.16012048 70.06511461 325.14624003 66.29305985 325.11845016 62.52059364 C325.1115581 61.14039362 325.11139042 59.76014008 325.11865044 58.37994194 C325.15791151 50.07352206 325.06816738 43.18902154 319.20156384 36.75007248 C314.37712855 32.35789735 309.23512757 31.01271746 302.84879494 31.00342751 C301.72361226 30.99697861 300.59842958 30.99052972 299.43915045 30.98388541 C297.60005986 30.98853121 297.60005986 30.98853121 295.72381592 30.99327087 C293.75836242 30.9864742 293.75836242 30.9864742 291.7532028 30.97954023 C288.1222732 30.96731886 284.49143579 30.96756966 280.86049032 30.96992898 C276.94219134 30.97033736 273.02392182 30.95929604 269.1056366 30.94981384 C261.43153399 30.93320807 253.75746211 30.92770451 246.08334304 30.92658909 C239.84546822 30.9256385 233.60760352 30.92152767 227.3697319 30.91518784 C209.68235434 30.89757729 191.99500103 30.88834878 174.30761464 30.88984878 C173.35428327 30.8899287 172.40095189 30.89000861 171.41873169 30.89009094 C170.46423584 30.8901727 169.50973999 30.89025447 168.52632003 30.8903387 C153.0544331 30.89115176 137.5826435 30.87200879 122.11078472 30.84381421 C106.22257485 30.81508943 90.33441244 30.80127366 74.44617593 30.80300176 C65.52682597 30.80366576 56.60757806 30.79816907 47.6882515 30.77664566 C40.09490242 30.7584393 32.50170167 30.75408209 24.90834023 30.76766451 C21.03489391 30.77419669 17.16173219 30.77430253 13.28831291 30.75695801 C9.0873177 30.73834023 4.88698204 30.75077498 0.68597412 30.76622009 C-0.53562483 30.75593297 -1.75722378 30.74564584 -3.01584089 30.73504698 C-10.85662852 30.79884429 -16.29647556 31.77224367 -22.44552612 36.97163391 C-23.11454956 37.79534485 -23.11454956 37.79534485 -23.79708862 38.63569641 C-24.258573 39.17968079 -24.72005737 39.72366516 -25.19552612 40.28413391 C-28.09380558 44.95460973 -28.67250159 49.53450369 -28.67656422 54.94247246 C-28.67977069 55.5919575 -28.68297717 56.24144254 -28.68628082 56.91060895 C-28.69457332 59.08402578 -28.68865927 61.25716649 -28.68278503 63.43058777 C-28.68580606 65.00574014 -28.6896953 66.58089105 -28.6943776 68.15603936 C-28.70467262 72.48246482 -28.70247195 76.80880755 -28.69819701 81.13523984 C-28.69573251 85.80200679 -28.70474052 90.46875368 -28.7122345 95.13551331 C-28.72499127 104.27749002 -28.72677396 113.41943738 -28.72443423 122.5614215 C-28.72265199 129.99161043 -28.72439871 137.42179044 -28.72865868 144.8519783 C-28.72925387 145.90904357 -28.72984905 146.96610884 -28.73046228 148.0552064 C-28.73167402 150.20256534 -28.73288815 152.34992429 -28.73410466 154.49728324 C-28.74498399 174.64056412 -28.74281585 194.78382826 -28.73671981 214.92711009 C-28.73155045 233.35741215 -28.74280589 251.78766135 -28.76181803 270.21795295 C-28.781187 289.13911418 -28.78945407 308.06025038 -28.78569478 326.98142159 C-28.78378128 337.60543375 -28.78628471 348.22940092 -28.80040932 358.853405 C-28.8123121 367.89783551 -28.81374039 376.94219334 -28.80161915 385.98662482 C-28.79572269 390.60126206 -28.79465222 395.2157663 -28.80662155 399.83039474 C-28.81745395 404.05579162 -28.81440855 408.28094401 -28.80035987 412.50632931 C-28.79770564 414.03387292 -28.80010223 415.56143552 -28.80809573 417.08896051 C-29.05833811 429.59872265 -29.05833811 429.59872265 -23.55490112 440.50288391 C-22.56103394 441.3111261 -22.56103394 441.3111261 -21.54708862 442.13569641 C-20.88966675 442.68999329 -20.23224487 443.24429016 -19.55490112 443.81538391 C-14.13098143 447.49093389 -9.31919846 447.54557657 -2.9694519 447.5160675 C-2.02411591 447.51968796 -1.07877991 447.52330841 -0.10479736 447.52703857 C1.94406038 447.53392181 3.99293641 447.53644002 6.04180527 447.5350914 C9.28713095 447.53412512 12.53212638 447.54708071 15.77740479 447.56407166 C25.00303597 447.61031332 34.22863311 447.63494963 43.45437622 447.64155579 C49.10128041 447.64657404 54.74783939 447.67083956 60.39462662 447.70688248 C62.54353893 447.71667241 64.69249878 447.71901684 66.84142685 447.71371078 C69.85015438 447.70663003 72.85785505 447.72394366 75.8664856 447.74653625 C76.74983582 447.7383638 77.63318604 447.73019135 78.54330444 447.72177124 C84.37643238 447.79951834 87.76453357 448.92820679 92.57791138 452.26069641 C95.53817626 455.37676471 96.82191325 458.99956635 97.07791138 463.26069641 C96.82191325 467.52182647 95.53817626 471.14462811 92.57791138 474.26069641 C86.88616252 478.19990342 82.73614971 478.83748023 75.90164185 478.7624054 C74.95589798 478.76780838 74.01015411 478.77321136 73.03575134 478.77877808 C69.92187796 478.79124196 66.80893392 478.77478189 63.69509888 478.75679016 C61.51664176 478.75694528 59.33818437 478.7584364 57.159729 478.76119995 C52.59522284 478.76258318 48.03103116 478.75004448 43.46658325 478.72724915 C37.64653471 478.69896646 31.82701243 478.70157549 26.00692558 478.71433926 C21.50616045 478.72133436 17.00551447 478.71346192 12.50476456 478.70108223 C10.36079492 478.69659771 8.21681234 478.6962044 6.07284164 478.70014763 C-13.81785257 478.719596 -30.00163553 477.10007093 -45.13302612 462.73725891 C-55.28950276 451.74885244 -59.54167513 438.25853065 -59.55072308 423.46425247 C-59.55247611 422.81451238 -59.55422915 422.16477228 -59.55603531 421.49534309 C-59.56067196 419.32711969 -59.55823587 417.15896404 -59.55580139 414.99073792 C-59.55767054 413.41686185 -59.55997166 411.84298626 -59.56266671 410.26911139 C-59.56877827 405.95075708 -59.56865188 401.63242215 -59.56747234 397.3140645 C-59.56726817 392.65408054 -59.57278865 387.99410277 -59.57752991 383.3341217 C-59.58583355 374.20665555 -59.58858462 365.07919585 -59.58914229 355.95172623 C-59.58961759 348.53160083 -59.59167308 341.11147757 -59.59484291 333.69135284 C-59.6036488 312.64949525 -59.6082624 291.60764275 -59.60751244 270.56578329 C-59.60747248 269.43159876 -59.60743252 268.29741423 -59.60739136 267.12886047 C-59.60735048 265.99328956 -59.6073096 264.85771864 -59.60726748 263.68773648 C-59.60686105 245.28540311 -59.61642989 226.8830902 -59.63052972 208.48076275 C-59.64489629 189.58102917 -59.65179975 170.68130556 -59.65093595 151.78156638 C-59.65060407 141.17257304 -59.65334713 130.56360115 -59.664114 119.95461273 C-59.67322269 110.92165194 -59.67539121 101.88872233 -59.66860458 92.85575894 C-59.66534122 88.24886954 -59.66527607 83.64203995 -59.67395782 79.03515625 C-59.68183185 74.81339189 -59.68038217 70.59173469 -59.67167369 66.36997291 C-59.67014069 64.84711582 -59.67194729 63.32425069 -59.67753377 61.80140308 C-59.74113637 43.2252818 -56.63507313 28.30707842 -43.68771362 14.39741516 C-31.35788204 2.51546208 -16.45518833 -0.05083526 0 0 Z " fill="#000000" transform="translate(99.42208862304688,16.739303588867188)"/>
<path d="M0 0 C0.61488281 0.52207031 1.22976563 1.04414063 1.86328125 1.58203125 C13.12926879 11.84881812 17.29865319 25.49675362 17.99609375 40.26171875 C18.01705887 60.32534048 7.94808492 73.27960762 -5.52862549 86.83300781 C-6.79224632 88.09752412 -8.05598306 89.3619246 -9.31982422 90.6262207 C-10.66623106 91.98026071 -12.01223867 93.33469778 -13.35787964 94.6894989 C-16.99350916 98.3469549 -20.63558078 101.9979269 -24.27958822 105.64703393 C-26.55900437 107.93010504 -28.83711977 110.2144661 -31.11481094 112.49925804 C-39.06905316 120.47794496 -47.02895516 128.45093971 -54.99365234 136.41918945 C-62.40650459 143.83568216 -69.8061014 151.26522403 -77.1998328 158.70077449 C-83.56145937 165.09711244 -89.93269113 171.48377676 -96.31134808 177.86313123 C-100.11532868 181.66790375 -103.91524853 185.4765261 -107.70534897 189.29512978 C-111.2681463 192.88412468 -114.84276046 196.460917 -118.42668533 200.0288105 C-119.73668778 201.33700039 -121.04245954 202.64944329 -122.34355164 203.96649551 C-131.67198182 213.40230786 -139.16564176 218.76985078 -152.41796875 220.88671875 C-153.27884598 221.0340596 -154.13972321 221.18140045 -155.02668762 221.33320618 C-157.74520767 221.79585064 -160.46613079 222.24195647 -163.1875 222.6875 C-165.02297153 222.99695113 -166.85826016 223.30748917 -168.69335938 223.61914062 C-172.78802053 224.31215983 -176.88425747 224.9946968 -180.98234558 225.66714478 C-182.79257487 225.96578079 -184.60146159 226.27252822 -186.41015625 226.58032227 C-195.55606242 228.0623936 -203.80375625 226.87149549 -211.6875 221.875 C-218.16810728 216.85629715 -221.73537476 209.96713899 -223 202 C-223.24628345 195.59138083 -222.47871855 189.60389061 -221.42578125 183.2890625 C-221.26007126 182.2808847 -221.09436127 181.27270691 -220.92362976 180.23397827 C-220.57155277 178.11046869 -220.21583969 175.98755911 -219.85668945 173.86523438 C-219.3157571 170.64439354 -218.79912285 167.42024131 -218.28320312 164.1953125 C-217.93638644 162.12214592 -217.58812581 160.04922028 -217.23828125 157.9765625 C-217.08909744 157.02520416 -216.93991364 156.07384583 -216.78620911 155.09365845 C-214.31579689 140.95657606 -206.66489058 132.9429831 -196.81542969 123.20019531 C-195.45880271 121.84006258 -194.10325573 120.47885192 -192.748703 119.11665344 C-189.08430015 115.43805869 -185.40451422 111.77522401 -181.72127056 108.11550617 C-177.85899056 104.27340666 -174.00978548 100.41824679 -170.15875244 96.56488037 C-163.69108359 90.09726502 -157.21365949 83.63955137 -150.72998047 77.18798828 C-143.246642 69.74153896 -135.77745125 62.28113365 -128.31602359 54.81273389 C-121.12198932 47.61238238 -113.91943453 40.42061676 -106.71250153 33.23317719 C-103.65279864 30.18162381 -100.59581799 27.12738172 -97.54097748 24.070961 C-93.93969356 20.46879459 -90.33089976 16.87431869 -86.71630287 13.28551292 C-85.39520261 11.97154112 -84.0765904 10.65506201 -82.76074028 9.3358326 C-59.7802853 -13.69234841 -26.94551708 -24.02685372 0 0 Z M-62 31 C-63.25683594 32.23556641 -63.25683594 32.23556641 -64.5390625 33.49609375 C-66.37525857 35.31606901 -68.19597524 37.14822165 -70 39 C-65.97251947 43.83298806 -61.75620587 48.38110004 -57.2890625 52.80859375 C-56.36956314 53.72597069 -56.36956314 53.72597069 -55.43148804 54.66188049 C-53.49835436 56.58947559 -51.56175013 58.51353928 -49.625 60.4375 C-48.30315301 61.75432404 -46.98153628 63.07137926 -45.66015625 64.38867188 C-42.44275701 67.59512373 -39.22224319 70.79841629 -36 74 C-34.89397664 73.0588806 -33.7889471 72.1165932 -32.68432617 71.17382812 C-32.06885422 70.64921997 -31.45338226 70.12461182 -30.81925964 69.58410645 C-28.21358392 67.3152342 -25.76495601 64.93496346 -23.3125 62.5 C-22.40113281 61.6028125 -21.48976563 60.705625 -20.55078125 59.78125 C-15.18736669 53.93323902 -12.42273185 48.56550399 -11.6875 40.625 C-12.32965675 33.17598175 -14.51042668 27.25089621 -20 22 C-36.87105725 10.86329137 -49.0689954 18.08256888 -62 31 Z M-95.64175415 64.29943848 C-96.81503769 65.3991246 -96.81503769 65.3991246 -98.01202393 66.52102661 C-98.87640076 67.33715424 -99.74077759 68.15328186 -100.63134766 68.99414062 C-101.98995407 70.27301651 -101.98995407 70.27301651 -103.37600708 71.57772827 C-111.81551649 79.54563271 -120.16678321 87.60419632 -128.48768044 95.69574738 C-134.06937292 101.11976825 -139.67740624 106.50900736 -145.36572266 111.82128906 C-179.70931308 142.70004105 -179.70931308 142.70004105 -193.06142044 185.52381897 C-193.16308655 188.69296536 -193.11116582 191.83119946 -193 195 C-193 195.66 -193 196.32 -193 197 C-189.33056985 196.69394847 -185.66542988 196.35057284 -182 196 C-180.86682783 195.89959789 -179.73365566 195.79919579 -178.56614494 195.69575119 C-156.46670064 193.46624759 -144.11009731 186.79300459 -128.87545323 170.41030169 C-126.37070625 167.74582662 -123.79151669 165.15513706 -121.2205658 162.55477905 C-116.39519365 157.65267177 -111.63696412 152.69071514 -106.90144581 147.70192182 C-101.49395488 142.01186431 -96.01252036 136.3953415 -90.52475178 130.78284192 C-79.26759104 119.2665814 -68.10337122 107.66465469 -57 96 C-61.47864836 90.69151724 -61.47864836 90.69151724 -66.2355957 85.63500977 C-66.79249588 85.07495743 -67.34939606 84.51490509 -67.923172 83.93788147 C-68.50153305 83.36154465 -69.0798941 82.78520782 -69.67578125 82.19140625 C-70.28640915 81.57982162 -70.89703705 80.968237 -71.52616882 80.33811951 C-72.80308385 79.06052961 -74.08123993 77.78417897 -75.3605957 76.5090332 C-77.32816566 74.54687744 -79.29026732 72.5793648 -81.25195312 70.61132812 C-82.49707483 69.36686624 -83.74250616 68.12271406 -84.98828125 66.87890625 C-85.57676346 66.28839981 -86.16524567 65.69789337 -86.77156067 65.0894928 C-91.16258601 60.41264037 -91.16258601 60.41264037 -95.64175415 64.29943848 Z " fill="#000000" transform="translate(454,268)"/>
<path d="M0 0 C1.32947768 -0.00935994 1.32947768 -0.00935994 2.68581349 -0.01890898 C5.64995044 -0.03483893 8.61326506 -0.02223457 11.57740784 -0.00964355 C13.70484394 -0.0150647 15.8322763 -0.02218731 17.95970154 -0.03088379 C23.73451906 -0.04912192 29.50905079 -0.04204715 35.28387332 -0.02936745 C41.32777601 -0.01924109 47.37165421 -0.02863224 53.41555786 -0.03491211 C63.56639499 -0.04219011 73.71711572 -0.03259731 83.86793518 -0.0135498 C95.6013931 0.00821328 107.33457293 0.00117214 119.0680241 -0.02085543 C129.14292989 -0.03901198 139.21775201 -0.04156629 149.29266888 -0.03110075 C155.30955345 -0.02486652 161.32630736 -0.02402828 167.34318352 -0.0372467 C173.00102491 -0.04880797 178.65850814 -0.04077399 184.31631088 -0.01766968 C186.391956 -0.01238387 188.4676313 -0.01389414 190.54326439 -0.02272034 C193.37853268 -0.03366441 196.21265606 -0.0199256 199.04785156 0 C199.86770473 -0.00892289 200.68755791 -0.01784577 201.53225511 -0.02703905 C207.16162005 0.0496053 210.4322753 1.31372902 215.0874176 4.50793457 C218.2692835 8.14992323 219.42508714 12.27719043 219.2124176 17.07043457 C218.37797939 21.94220517 216.02215803 25.53007022 212.0874176 28.50793457 C207.06337123 30.60414691 202.6705238 30.79367199 197.32669067 30.76863098 C196.45670643 30.77245653 195.58672219 30.77628208 194.69037479 30.78022355 C191.78172629 30.79052389 188.87327628 30.78656703 185.96461487 30.78259277 C183.87659015 30.78694087 181.78856702 30.79212434 179.70054626 30.79808044 C174.03323894 30.81147069 168.36599831 30.81204911 162.69867826 30.80951715 C157.96696655 30.80844753 153.23526834 30.81333053 148.50355953 30.81812257 C137.34099088 30.82921768 126.17845589 30.82965502 115.0158844 30.8236084 C103.50060007 30.81756665 91.98543787 30.82988478 80.47017437 30.85117847 C70.58211982 30.86879078 60.69410416 30.87479643 50.80603451 30.87154073 C44.90094522 30.86972726 38.99594308 30.87237053 33.090868 30.88625526 C27.53815369 30.89882302 21.9856299 30.89689936 16.43291855 30.88384438 C14.3959681 30.88147682 12.35900429 30.88421966 10.32206917 30.8924675 C7.53953421 30.90292133 4.75764014 30.89484515 1.97512817 30.88215637 C0.76869411 30.8932178 0.76869411 30.8932178 -0.46211237 30.90450269 C-5.66928441 30.85461478 -9.2896218 29.95436839 -13.9125824 27.50793457 C-18.40815986 22.65744309 -19.2737695 19.51225107 -19.18992615 13.04699707 C-18.64536322 8.0615618 -16.05907029 5.45131426 -12.3211813 2.37561798 C-7.98983417 0.00233048 -4.85034074 -0.05264553 0 0 Z " fill="#000000" transform="translate(147.91258239746094,185.4920654296875)"/>
<path d="M0 0 C0.88854429 -0.00367669 1.77708859 -0.00735338 2.69255847 -0.01114148 C5.68190085 -0.02218997 8.67120848 -0.02602411 11.66056824 -0.02983093 C13.7990327 -0.03609462 15.93749608 -0.04274134 18.07595825 -0.04974365 C23.89417594 -0.06716022 29.71238542 -0.07770687 35.53062272 -0.08594918 C39.16380535 -0.09109717 42.79698542 -0.09717295 46.43016624 -0.10346031 C57.79232378 -0.12251287 69.15447481 -0.13674476 80.51664525 -0.14507228 C93.64241893 -0.1548507 106.76802424 -0.18118584 119.89373857 -0.22157317 C130.03308852 -0.25170368 140.17239011 -0.26653818 150.31178397 -0.26985329 C156.37062938 -0.27220696 162.42929494 -0.28120884 168.48809242 -0.30631447 C174.18688542 -0.32954696 179.88537951 -0.33384776 185.58420753 -0.32355309 C187.67641187 -0.32305647 189.76863068 -0.32941382 191.86079025 -0.34310913 C194.71622899 -0.36075593 197.57058658 -0.35375733 200.42602539 -0.34057617 C201.25472871 -0.35154542 202.08343203 -0.36251466 202.93724757 -0.37381631 C209.12769569 -0.30478292 212.63296505 1.56771847 217.21598816 5.83467102 C219.79180742 10.85074012 219.8542602 15.61955467 218.27848816 20.95967102 C215.96228946 24.8972088 213.46784009 27.11499506 209.40348816 29.14717102 C206.55755971 29.25183725 203.73573533 29.29496515 200.88926697 29.29434204 C199.55160684 29.29985707 199.55160684 29.29985707 198.18692327 29.30548352 C195.18065532 29.31654976 192.1744219 29.32036917 189.1681366 29.32417297 C187.01996754 29.33043539 184.87179958 29.33708199 182.72363281 29.34408569 C176.87436514 29.36151577 171.02510566 29.37205287 165.17581844 29.38029122 C161.52371261 29.38543698 157.87160934 29.3915129 154.21950531 29.39780235 C142.79967925 29.41685978 131.37985969 29.4310899 119.96002078 29.43941432 C106.76518681 29.44919062 93.57052043 29.47551821 80.37574553 29.51591522 C70.18546076 29.54604614 59.99522411 29.56088032 49.80489564 29.56419533 C43.71473659 29.56654922 37.62475646 29.57555376 31.53464508 29.60065651 C25.8054971 29.62388932 20.07664644 29.62818966 14.34746361 29.61789513 C12.24397227 29.61739849 10.14046654 29.62375627 8.03701973 29.63745117 C5.16620266 29.65509718 2.29646104 29.64809969 -0.57435608 29.63491821 C-1.82427066 29.65137208 -1.82427066 29.65137208 -3.09943604 29.66815835 C-8.39013566 29.6094713 -11.40153348 28.65897603 -15.59651184 25.14717102 C-18.91828677 20.38596029 -19.36863187 15.78156041 -18.59651184 10.14717102 C-16.94770542 6.43735657 -14.64505299 3.81464453 -11.59651184 1.14717102 C-7.71726054 -0.14591275 -4.0432579 -0.0008923 0 0 Z " fill="#000000" transform="translate(147.5965118408203,104.85282897949219)"/>
<path d="M0 0 C0.93783829 -0.00571014 1.87567657 -0.01142029 2.8419342 -0.01730347 C3.86900482 -0.01842133 4.89607544 -0.01953918 5.95426941 -0.02069092 C7.57906975 -0.02813828 7.57906975 -0.02813828 9.23669434 -0.03573608 C12.82769908 -0.05036643 16.41865965 -0.05716118 20.00968933 -0.06268311 C22.50209556 -0.06843383 24.99450177 -0.07419157 27.48690796 -0.07995605 C32.04792072 -0.08912439 36.60892079 -0.0954237 41.16994172 -0.09845281 C47.2094484 -0.10248618 53.24879961 -0.11476168 59.28825378 -0.14080811 C65.76913655 -0.16832863 72.24988584 -0.18120014 78.73082542 -0.18312836 C81.20157163 -0.18615649 83.67231695 -0.19419036 86.14303017 -0.20731354 C89.59979846 -0.22436344 93.0560699 -0.22249607 96.51286316 -0.21600342 C98.04436005 -0.22982559 98.04436005 -0.22982559 99.60679626 -0.243927 C104.96574399 -0.21238852 108.82254249 0.07727081 113.42765808 3.14044189 C117.8734773 8.06689021 118.7785279 11.09182969 118.71281433 17.59747314 C118.19192553 22.24265962 115.76876595 24.96189255 112.36515808 27.95294189 C109.15976374 29.91753843 106.52668589 30.26748973 102.85531616 30.28088379 C101.44855873 30.28944901 101.44855873 30.28944901 100.01338196 30.29818726 C98.98631134 30.29930511 97.95924072 30.30042297 96.90104675 30.30157471 C95.27624641 30.30902206 95.27624641 30.30902206 93.61862183 30.31661987 C90.02761708 30.33125022 86.43665651 30.33804497 82.84562683 30.34356689 C80.35322061 30.34931762 77.8608144 30.35507536 75.3684082 30.36083984 C70.80739544 30.37000818 66.24639537 30.37630749 61.68537444 30.3793366 C55.64586776 30.38336997 49.60651655 30.39564547 43.56706238 30.42169189 C37.08617961 30.44921241 30.60543033 30.46208393 24.12449074 30.46401215 C21.65374453 30.46704027 19.18299921 30.47507415 16.712286 30.48819733 C13.2555177 30.50524723 9.79924626 30.50337986 6.342453 30.49688721 C4.81095612 30.51070938 4.81095612 30.51070938 3.2485199 30.52481079 C-2.11042783 30.4932723 -5.96722633 30.20361298 -10.57234192 27.14044189 C-15.01816113 22.21399358 -15.92321174 19.1890541 -15.85749817 12.68341064 C-15.33660936 8.03822417 -12.91344979 5.31899124 -9.50984192 2.32794189 C-6.30444758 0.36334536 -3.67136973 0.01339406 0 0 Z " fill="#000000" transform="translate(144.5723419189453,266.85955810546875)"/>
</svg>
